<?xml version="1.0" encoding="utf-8"?>
<!-- Generator: Adobe Illustrator 24.1.2, SVG Export Plug-In . SVG Version: 6.00 Build 0)  -->
<svg version="1.1" id="Layer_1" xmlns="http://www.w3.org/2000/svg" xmlns:xlink="http://www.w3.org/1999/xlink" x="0px" y="0px"
	 viewBox="0 0 263.69 95.59" style="enable-background:new 0 0 263.69 95.59;" xml:space="preserve">
<style type="text/css">
	.st0{fill:#303030;}
</style>
<g>
	<g>
		<path class="st0" d="M1.17,2.03H13.2V62.1H1.17V2.03z"/>
		<path class="st0" d="M65.34,35.23V2.03h12.04v61.18L41.35,28.86V62.1H29.31V0.92L65.34,35.23z"/>
		<path class="st0" d="M111.74,35.23V2.03h12.04v61.18L87.74,28.86V62.1H75.7V0.92L111.74,35.23z"/>
		<path class="st0" d="M172.4,10.68c5.96,5.96,8.94,13.12,8.94,21.46s-2.98,15.5-8.94,21.43c-5.96,5.92-13.12,8.91-21.46,8.91
			s-15.5-2.98-21.43-8.91c-5.92-5.92-8.91-13.08-8.91-21.43s2.98-15.5,8.91-21.46s13.08-8.94,21.43-8.94S166.44,4.72,172.4,10.68z
			 M138.08,19.21c-3.54,3.58-5.33,7.86-5.33,12.86c0,5.03,1.79,9.32,5.33,12.86s7.83,5.33,12.86,5.33c4.99,0,9.28-1.79,12.86-5.33
			s5.37-7.83,5.37-12.86c0-4.99-1.79-9.28-5.37-12.86s-7.86-5.37-12.86-5.37C145.91,13.85,141.62,15.63,138.08,19.21z"/>
		<path class="st0" d="M199.6,63.22L172.62,2.03h2.38h7.9h0.48h1.94l14.23,32.75L213.8,2.03h2.53h10.32L199.6,63.22z"/>
		<path class="st0" d="M225.16,52.82c-1.34,3.06-2.72,6.07-4.1,9.13h-12.93l27.24-61.04l27.31,61.04h-12.97
			c-1.34-3.02-2.68-6.07-4.02-9.09h-20.46L225.16,52.82z M240.78,42.24l-5.29-12.48l-5.33,12.48H240.78z"/>
	</g>
	<g>
		<path class="st0" d="M12.29,80.8c0,0.88-0.19,1.68-0.58,2.39C11.33,83.9,10.79,84.5,10.1,85c-0.69,0.5-1.5,0.88-2.44,1.15
			c-0.94,0.27-1.95,0.4-3.04,0.4H3.35v7.26H0.81V75.42h4.44c0.99,0,1.92,0.11,2.77,0.33c0.86,0.22,1.6,0.56,2.24,1.01
			c0.63,0.45,1.13,1.01,1.49,1.68C12.12,79.11,12.29,79.9,12.29,80.8z M9.76,80.77c0-0.61-0.12-1.12-0.36-1.53s-0.57-0.75-0.98-1.02
			c-0.41-0.27-0.9-0.46-1.46-0.58c-0.56-0.12-1.15-0.18-1.78-0.18H3.35v7.04H4.7c0.74,0,1.41-0.08,2.03-0.25
			c0.62-0.17,1.15-0.41,1.6-0.73c0.45-0.32,0.8-0.71,1.05-1.17S9.76,81.36,9.76,80.77z"/>
		<path class="st0" d="M28.41,93.8h-2.54V75.42h4.78c0.99,0,1.92,0.11,2.77,0.33c0.86,0.22,1.6,0.55,2.25,0.98
			c0.64,0.43,1.15,0.98,1.52,1.63c0.37,0.65,0.55,1.4,0.55,2.25c0,1.27-0.41,2.37-1.23,3.31c-0.82,0.94-1.96,1.62-3.44,2.04
			l6.49,7.84h-3.12l-5.99-7.4c-0.09,0-0.23,0-0.41,0.01c-0.18,0.01-0.38,0.01-0.58,0.01s-0.4,0-0.59,0s-0.35,0-0.46,0V93.8z
			 M35.2,80.66c0-0.57-0.12-1.06-0.37-1.48c-0.25-0.41-0.58-0.75-1.01-0.99s-0.91-0.43-1.46-0.55c-0.55-0.12-1.13-0.18-1.74-0.18
			h-2.21v6.93h1.27c0.77,0,1.49-0.07,2.17-0.22c0.67-0.15,1.26-0.37,1.75-0.68s0.89-0.69,1.17-1.16
			C35.06,81.86,35.2,81.31,35.2,80.66z"/>
		<path class="st0" d="M60.85,94.13c-1.44,0-2.71-0.26-3.84-0.77c-1.12-0.52-2.06-1.21-2.82-2.07s-1.33-1.88-1.73-3.04
			c-0.4-1.16-0.59-2.37-0.59-3.64c0-1.27,0.2-2.48,0.59-3.64c0.4-1.16,0.97-2.17,1.73-3.04c0.75-0.86,1.69-1.55,2.82-2.07
			c1.12-0.52,2.4-0.77,3.84-0.77c1.44,0,2.71,0.26,3.84,0.77c1.12,0.51,2.06,1.21,2.82,2.07c0.75,0.87,1.33,1.88,1.73,3.04
			c0.4,1.16,0.59,2.37,0.59,3.64c0,1.27-0.2,2.48-0.59,3.64c-0.4,1.16-0.97,2.17-1.73,3.04c-0.75,0.87-1.69,1.55-2.82,2.07
			C63.56,93.88,62.28,94.13,60.85,94.13z M60.85,92.09c1.05,0,1.98-0.19,2.79-0.58c0.81-0.39,1.48-0.92,2.02-1.6
			c0.53-0.68,0.94-1.48,1.21-2.39c0.28-0.91,0.41-1.88,0.41-2.91s-0.14-2-0.41-2.91c-0.28-0.91-0.68-1.7-1.21-2.37
			c-0.53-0.67-1.21-1.21-2.02-1.6c-0.81-0.4-1.74-0.59-2.79-0.59s-1.98,0.2-2.79,0.59c-0.81,0.4-1.48,0.93-2.02,1.6
			c-0.53,0.67-0.94,1.46-1.21,2.37c-0.28,0.91-0.41,1.88-0.41,2.91s0.14,2,0.41,2.91c0.28,0.91,0.68,1.71,1.21,2.39
			c0.53,0.68,1.21,1.21,2.02,1.6C58.87,91.9,59.8,92.09,60.85,92.09z"/>
		<path class="st0" d="M84.31,75.42h5.11c1.58,0,3.02,0.23,4.31,0.69s2.39,1.1,3.31,1.92c0.92,0.82,1.63,1.79,2.13,2.91
			c0.5,1.12,0.75,2.35,0.75,3.67c0,1.32-0.25,2.55-0.75,3.67c-0.5,1.12-1.21,2.09-2.13,2.91c-0.92,0.82-2.02,1.46-3.31,1.92
			c-1.29,0.46-2.72,0.69-4.31,0.69h-5.11V75.42z M89.42,91.76c1.1,0,2.14-0.16,3.1-0.48c0.97-0.32,1.81-0.79,2.53-1.39
			c0.72-0.61,1.28-1.35,1.7-2.24c0.41-0.88,0.62-1.9,0.62-3.04c0-1.12-0.21-2.13-0.62-3.02s-0.98-1.64-1.7-2.25
			s-1.56-1.07-2.53-1.39c-0.97-0.32-2-0.48-3.1-0.48h-2.57v14.3H89.42z"/>
		<path class="st0" d="M125.96,75.42h2.54v11.87c0,0.96-0.16,1.85-0.47,2.69c-0.31,0.84-0.77,1.56-1.38,2.18
			c-0.61,0.62-1.36,1.1-2.25,1.45s-1.93,0.52-3.1,0.52c-1.18,0-2.21-0.17-3.11-0.52s-1.64-0.83-2.25-1.45
			c-0.61-0.62-1.07-1.34-1.38-2.18c-0.31-0.84-0.47-1.73-0.47-2.69V75.42h2.54V87.4c0,1.38,0.39,2.5,1.17,3.37
			c0.78,0.87,1.95,1.3,3.49,1.3c1.55,0,2.71-0.43,3.49-1.3c0.78-0.87,1.17-1.99,1.17-3.37V75.42z"/>
		<path class="st0" d="M152.38,75.09c0.83,0,1.69,0.08,2.59,0.23c0.9,0.16,1.66,0.36,2.26,0.62l-0.41,1.96
			c-0.63-0.22-1.3-0.4-2.01-0.54c-0.72-0.14-1.43-0.21-2.13-0.21c-2.3,0-4.09,0.64-5.38,1.93s-1.93,3.13-1.93,5.52
			c0,2.39,0.64,4.23,1.93,5.52s3.08,1.93,5.38,1.93c0.7,0,1.41-0.07,2.13-0.21c0.72-0.14,1.39-0.32,2.01-0.54l0.41,1.96
			c-0.61,0.26-1.36,0.46-2.26,0.62s-1.77,0.23-2.59,0.23c-1.51,0-2.86-0.24-4.04-0.72c-1.19-0.48-2.18-1.14-2.99-1.99
			c-0.81-0.85-1.43-1.85-1.86-3.01c-0.43-1.16-0.65-2.43-0.65-3.81c0-1.38,0.22-2.65,0.65-3.81c0.43-1.16,1.05-2.16,1.86-3.01
			c0.81-0.85,1.81-1.51,2.99-1.99C149.52,75.33,150.87,75.09,152.38,75.09z"/>
		<path class="st0" d="M183.49,75.42v2.07h-5.41V93.8h-2.54V77.49h-5.41v-2.07H183.49z"/>
		<path class="st0" d="M200.02,93.8h-2.54V75.42h2.54V93.8z"/>
		<path class="st0" d="M223.62,94.13c-1.44,0-2.71-0.26-3.84-0.77c-1.12-0.52-2.06-1.21-2.82-2.07s-1.33-1.88-1.72-3.04
			c-0.4-1.16-0.59-2.37-0.59-3.64c0-1.27,0.2-2.48,0.59-3.64c0.4-1.16,0.97-2.17,1.72-3.04c0.75-0.86,1.69-1.55,2.82-2.07
			c1.12-0.52,2.4-0.77,3.84-0.77s2.71,0.26,3.84,0.77c1.12,0.51,2.06,1.21,2.82,2.07c0.75,0.87,1.33,1.88,1.73,3.04
			c0.4,1.16,0.59,2.37,0.59,3.64c0,1.27-0.2,2.48-0.59,3.64c-0.4,1.16-0.97,2.17-1.73,3.04c-0.75,0.87-1.69,1.55-2.82,2.07
			C226.33,93.88,225.06,94.13,223.62,94.13z M223.62,92.09c1.05,0,1.98-0.19,2.79-0.58s1.48-0.92,2.01-1.6
			c0.53-0.68,0.94-1.48,1.21-2.39c0.28-0.91,0.41-1.88,0.41-2.91s-0.14-2-0.41-2.91c-0.28-0.91-0.68-1.7-1.21-2.37
			c-0.53-0.67-1.21-1.21-2.01-1.6s-1.74-0.59-2.79-0.59s-1.98,0.2-2.79,0.59s-1.48,0.93-2.01,1.6c-0.53,0.67-0.94,1.46-1.21,2.37
			c-0.28,0.91-0.41,1.88-0.41,2.91s0.14,2,0.41,2.91c0.28,0.91,0.68,1.71,1.21,2.39c0.53,0.68,1.21,1.21,2.01,1.6
			S222.57,92.09,223.62,92.09z"/>
		<path class="st0" d="M259.81,93.8l-10.29-14.44V93.8h-2.43V75.42h2.43l10.29,14.44V75.42h2.43V93.8H259.81z"/>
	</g>
</g>
</svg>
