<?xml version="1.0" encoding="utf-8"?>
<!-- Generator: Adobe Illustrator 24.1.2, SVG Export Plug-In . SVG Version: 6.00 Build 0)  -->
<svg version="1.1" id="Layer_1" xmlns="http://www.w3.org/2000/svg" xmlns:xlink="http://www.w3.org/1999/xlink" x="0px" y="0px"
	 viewBox="0 0 263.69 115.78" style="enable-background:new 0 0 263.69 115.78;" xml:space="preserve">
<style type="text/css">
	.st0{fill:#303030;}
</style>
<g>
	<g>
		<path class="st0" d="M1.17,2.03H13.2V62.1H1.17V2.03z"/>
		<path class="st0" d="M65.34,35.23V2.03h12.04v61.18L41.35,28.86V62.1H29.31V0.92L65.34,35.23z"/>
		<path class="st0" d="M111.74,35.23V2.03h12.04v61.18L87.74,28.86V62.1H75.7V0.92L111.74,35.23z"/>
		<path class="st0" d="M172.4,10.68c5.96,5.96,8.94,13.12,8.94,21.46s-2.98,15.5-8.94,21.43c-5.96,5.92-13.12,8.91-21.46,8.91
			s-15.5-2.98-21.43-8.91c-5.92-5.92-8.91-13.08-8.91-21.43s2.98-15.5,8.91-21.46s13.08-8.94,21.43-8.94S166.44,4.72,172.4,10.68z
			 M138.08,19.21c-3.54,3.58-5.33,7.86-5.33,12.86c0,5.03,1.79,9.32,5.33,12.86s7.83,5.33,12.86,5.33c4.99,0,9.28-1.79,12.86-5.33
			s5.37-7.83,5.37-12.86c0-4.99-1.79-9.28-5.37-12.86s-7.86-5.37-12.86-5.37C145.91,13.85,141.62,15.63,138.08,19.21z"/>
		<path class="st0" d="M199.6,63.22L172.62,2.03h2.38h7.9h0.48h1.94l14.23,32.75L213.8,2.03h2.53h10.32L199.6,63.22z"/>
		<path class="st0" d="M225.16,52.82c-1.34,3.06-2.72,6.07-4.1,9.13h-12.93l27.24-61.04l27.31,61.04h-12.97
			c-1.34-3.02-2.68-6.07-4.02-9.09h-20.46L225.16,52.82z M240.78,42.24l-5.29-12.48l-5.33,12.48H240.78z"/>
	</g>
	<g>
		<path class="st0" d="M12.29,80.8c0,0.88-0.19,1.68-0.58,2.39C11.33,83.9,10.79,84.5,10.1,85c-0.69,0.5-1.5,0.88-2.44,1.15
			c-0.94,0.27-1.95,0.4-3.04,0.4H3.35v7.26H0.81V75.42h4.44c0.99,0,1.92,0.11,2.77,0.33c0.86,0.22,1.6,0.56,2.24,1.01
			c0.63,0.45,1.13,1.01,1.49,1.68C12.12,79.11,12.29,79.9,12.29,80.8z M9.76,80.77c0-0.61-0.12-1.12-0.36-1.53s-0.57-0.75-0.98-1.02
			c-0.41-0.27-0.9-0.46-1.46-0.58c-0.56-0.12-1.15-0.18-1.78-0.18H3.35v7.04H4.7c0.74,0,1.41-0.08,2.03-0.25
			c0.62-0.17,1.15-0.41,1.6-0.73c0.45-0.32,0.8-0.71,1.05-1.17S9.76,81.36,9.76,80.77z"/>
		<path class="st0" d="M28.41,93.8h-2.54V75.42h4.78c0.99,0,1.92,0.11,2.77,0.33c0.86,0.22,1.6,0.55,2.25,0.98
			c0.64,0.43,1.15,0.98,1.52,1.63c0.37,0.65,0.55,1.4,0.55,2.25c0,1.27-0.41,2.37-1.23,3.31c-0.82,0.94-1.96,1.62-3.44,2.04
			l6.49,7.84h-3.12l-5.99-7.4c-0.09,0-0.23,0-0.41,0.01c-0.18,0.01-0.38,0.01-0.58,0.01s-0.4,0-0.59,0s-0.35,0-0.46,0V93.8z
			 M35.2,80.66c0-0.57-0.12-1.06-0.37-1.48c-0.25-0.41-0.58-0.75-1.01-0.99s-0.91-0.43-1.46-0.55c-0.55-0.12-1.13-0.18-1.74-0.18
			h-2.21v6.93h1.27c0.77,0,1.49-0.07,2.17-0.22c0.67-0.15,1.26-0.37,1.75-0.68s0.89-0.69,1.17-1.16
			C35.06,81.86,35.2,81.31,35.2,80.66z"/>
		<path class="st0" d="M60.85,94.13c-1.44,0-2.71-0.26-3.84-0.77c-1.12-0.52-2.06-1.21-2.82-2.07s-1.33-1.88-1.73-3.04
			c-0.4-1.16-0.59-2.37-0.59-3.64c0-1.27,0.2-2.48,0.59-3.64c0.4-1.16,0.97-2.17,1.73-3.04c0.75-0.86,1.69-1.55,2.82-2.07
			c1.12-0.52,2.4-0.77,3.84-0.77c1.44,0,2.71,0.26,3.84,0.77c1.12,0.51,2.06,1.21,2.82,2.07c0.75,0.87,1.33,1.88,1.73,3.04
			c0.4,1.16,0.59,2.37,0.59,3.64c0,1.27-0.2,2.48-0.59,3.64c-0.4,1.16-0.97,2.17-1.73,3.04c-0.75,0.87-1.69,1.55-2.82,2.07
			C63.56,93.88,62.28,94.13,60.85,94.13z M60.85,92.09c1.05,0,1.98-0.19,2.79-0.58c0.81-0.39,1.48-0.92,2.02-1.6
			c0.53-0.68,0.94-1.48,1.21-2.39c0.28-0.91,0.41-1.88,0.41-2.91s-0.14-2-0.41-2.91c-0.28-0.91-0.68-1.7-1.21-2.37
			c-0.53-0.67-1.21-1.21-2.02-1.6c-0.81-0.4-1.74-0.59-2.79-0.59s-1.98,0.2-2.79,0.59c-0.81,0.4-1.48,0.93-2.02,1.6
			c-0.53,0.67-0.94,1.46-1.21,2.37c-0.28,0.91-0.41,1.88-0.41,2.91s0.14,2,0.41,2.91c0.28,0.91,0.68,1.71,1.21,2.39
			c0.53,0.68,1.21,1.21,2.02,1.6C58.87,91.9,59.8,92.09,60.85,92.09z"/>
		<path class="st0" d="M84.31,75.42h5.11c1.58,0,3.02,0.23,4.31,0.69s2.39,1.1,3.31,1.92c0.92,0.82,1.63,1.79,2.13,2.91
			c0.5,1.12,0.75,2.35,0.75,3.67c0,1.32-0.25,2.55-0.75,3.67c-0.5,1.12-1.21,2.09-2.13,2.91c-0.92,0.82-2.02,1.46-3.31,1.92
			c-1.29,0.46-2.72,0.69-4.31,0.69h-5.11V75.42z M89.42,91.76c1.1,0,2.14-0.16,3.1-0.48c0.97-0.32,1.81-0.79,2.53-1.39
			c0.72-0.61,1.28-1.35,1.7-2.24c0.41-0.88,0.62-1.9,0.62-3.04c0-1.12-0.21-2.13-0.62-3.02s-0.98-1.64-1.7-2.25
			s-1.56-1.07-2.53-1.39c-0.97-0.32-2-0.48-3.1-0.48h-2.57v14.3H89.42z"/>
		<path class="st0" d="M125.96,75.42h2.54v11.87c0,0.96-0.16,1.85-0.47,2.69c-0.31,0.84-0.77,1.56-1.38,2.18
			c-0.61,0.62-1.36,1.1-2.25,1.45s-1.93,0.52-3.1,0.52c-1.18,0-2.21-0.17-3.11-0.52s-1.64-0.83-2.25-1.45
			c-0.61-0.62-1.07-1.34-1.38-2.18c-0.31-0.84-0.47-1.73-0.47-2.69V75.42h2.54V87.4c0,1.38,0.39,2.5,1.17,3.37
			c0.78,0.87,1.95,1.3,3.49,1.3c1.55,0,2.71-0.43,3.49-1.3c0.78-0.87,1.17-1.99,1.17-3.37V75.42z"/>
		<path class="st0" d="M152.38,75.09c0.83,0,1.69,0.08,2.59,0.23c0.9,0.16,1.66,0.36,2.26,0.62l-0.41,1.96
			c-0.63-0.22-1.3-0.4-2.01-0.54c-0.72-0.14-1.43-0.21-2.13-0.21c-2.3,0-4.09,0.64-5.38,1.93s-1.93,3.13-1.93,5.52
			c0,2.39,0.64,4.23,1.93,5.52s3.08,1.93,5.38,1.93c0.7,0,1.41-0.07,2.13-0.21c0.72-0.14,1.39-0.32,2.01-0.54l0.41,1.96
			c-0.61,0.26-1.36,0.46-2.26,0.62s-1.77,0.23-2.59,0.23c-1.51,0-2.86-0.24-4.04-0.72c-1.19-0.48-2.18-1.14-2.99-1.99
			c-0.81-0.85-1.43-1.85-1.86-3.01c-0.43-1.16-0.65-2.43-0.65-3.81c0-1.38,0.22-2.65,0.65-3.81c0.43-1.16,1.05-2.16,1.86-3.01
			c0.81-0.85,1.81-1.51,2.99-1.99C149.52,75.33,150.87,75.09,152.38,75.09z"/>
		<path class="st0" d="M183.49,75.42v2.07h-5.41V93.8h-2.54V77.49h-5.41v-2.07H183.49z"/>
		<path class="st0" d="M200.02,93.8h-2.54V75.42h2.54V93.8z"/>
		<path class="st0" d="M223.62,94.13c-1.44,0-2.71-0.26-3.84-0.77c-1.12-0.52-2.06-1.21-2.82-2.07s-1.33-1.88-1.72-3.04
			c-0.4-1.16-0.59-2.37-0.59-3.64c0-1.27,0.2-2.48,0.59-3.64c0.4-1.16,0.97-2.17,1.72-3.04c0.75-0.86,1.69-1.55,2.82-2.07
			c1.12-0.52,2.4-0.77,3.84-0.77s2.71,0.26,3.84,0.77c1.12,0.51,2.06,1.21,2.82,2.07c0.75,0.87,1.33,1.88,1.73,3.04
			c0.4,1.16,0.59,2.37,0.59,3.64c0,1.27-0.2,2.48-0.59,3.64c-0.4,1.16-0.97,2.17-1.73,3.04c-0.75,0.87-1.69,1.55-2.82,2.07
			C226.33,93.88,225.06,94.13,223.62,94.13z M223.62,92.09c1.05,0,1.98-0.19,2.79-0.58s1.48-0.92,2.01-1.6
			c0.53-0.68,0.94-1.48,1.21-2.39c0.28-0.91,0.41-1.88,0.41-2.91s-0.14-2-0.41-2.91c-0.28-0.91-0.68-1.7-1.21-2.37
			c-0.53-0.67-1.21-1.21-2.01-1.6s-1.74-0.59-2.79-0.59s-1.98,0.2-2.79,0.59s-1.48,0.93-2.01,1.6c-0.53,0.67-0.94,1.46-1.21,2.37
			c-0.28,0.91-0.41,1.88-0.41,2.91s0.14,2,0.41,2.91c0.28,0.91,0.68,1.71,1.21,2.39c0.53,0.68,1.21,1.21,2.01,1.6
			S222.57,92.09,223.62,92.09z"/>
		<path class="st0" d="M259.81,93.8l-10.29-14.44V93.8h-2.43V75.42h2.43l10.29,14.44V75.42h2.43V93.8H259.81z"/>
	</g>
	<g>
		<path class="st0" d="M6.2,106.51c0.36,0,0.74,0.03,1.13,0.1c0.39,0.07,0.72,0.16,0.98,0.27l-0.18,0.85
			c-0.27-0.1-0.56-0.17-0.88-0.23c-0.31-0.06-0.62-0.09-0.92-0.09c-1,0-1.78,0.28-2.34,0.84c-0.56,0.56-0.84,1.36-0.84,2.4
			s0.28,1.84,0.84,2.4c0.56,0.56,1.34,0.84,2.34,0.84c0.3,0,0.61-0.03,0.92-0.09c0.31-0.06,0.6-0.14,0.88-0.23l0.18,0.85
			c-0.26,0.11-0.59,0.2-0.98,0.27c-0.39,0.07-0.77,0.1-1.13,0.1c-0.66,0-1.24-0.1-1.76-0.31c-0.52-0.21-0.95-0.5-1.3-0.86
			c-0.35-0.37-0.62-0.8-0.81-1.31s-0.28-1.06-0.28-1.66s0.09-1.15,0.28-1.66s0.46-0.94,0.81-1.31s0.79-0.66,1.3-0.86
			C4.96,106.61,5.55,106.51,6.2,106.51z"/>
		<path class="st0" d="M15.06,114.64h-1.1v-7.99h2.08c0.43,0,0.83,0.05,1.21,0.14c0.37,0.1,0.7,0.24,0.98,0.43
			c0.28,0.19,0.5,0.42,0.66,0.71s0.24,0.61,0.24,0.98c0,0.55-0.18,1.03-0.53,1.44s-0.85,0.7-1.49,0.89l2.82,3.41h-1.36l-2.6-3.22
			c-0.04,0-0.1,0-0.18,0.01s-0.16,0.01-0.25,0.01c-0.09,0-0.17,0-0.26,0s-0.15,0-0.2,0V114.64z M18.01,108.93
			c0-0.25-0.05-0.46-0.16-0.64c-0.11-0.18-0.25-0.32-0.44-0.43c-0.18-0.11-0.4-0.19-0.64-0.24c-0.24-0.05-0.49-0.08-0.76-0.08h-0.96
			v3.01h0.55c0.34,0,0.65-0.03,0.94-0.1c0.29-0.06,0.55-0.16,0.76-0.29c0.22-0.13,0.39-0.3,0.51-0.5S18.01,109.21,18.01,108.93z"/>
		<path class="st0" d="M25.1,106.65h4.45v0.9h-3.35v2.56h3.2v0.9h-3.2v2.74h3.38v0.9H25.1V106.65z"/>
		<path class="st0" d="M42.18,114.64h-1.13l-0.73-1.93h-3.73l-0.72,1.93h-1.13l3.18-7.99H39L42.18,114.64z M36.92,111.82H40
			l-1.54-4.16L36.92,111.82z"/>
		<path class="st0" d="M51.95,106.65v0.9H49.6v7.09h-1.1v-7.09h-2.35v-0.9H51.95z"/>
		<path class="st0" d="M57.31,106.65h4.45v0.9h-3.35v2.56h3.2v0.9h-3.2v2.74h3.38v0.9h-4.49V106.65z"/>
		<path class="st0" d="M74.47,117.64v-12h0.89v12H74.47z"/>
		<path class="st0" d="M89.48,114.64h-1.1v-7.99h1.1V114.64z"/>
		<path class="st0" d="M101.14,114.64l-4.48-6.28v6.28H95.6v-7.99h1.06l4.48,6.28v-6.28h1.06v7.99H101.14z"/>
		<path class="st0" d="M112.86,112.57c0,0.34-0.07,0.65-0.22,0.92c-0.15,0.27-0.35,0.5-0.6,0.7s-0.55,0.34-0.89,0.44
			c-0.34,0.1-0.71,0.16-1.1,0.16c-0.38,0-0.78-0.04-1.18-0.12c-0.4-0.08-0.77-0.2-1.11-0.36l0.22-0.88c0.3,0.14,0.62,0.25,0.98,0.34
			s0.71,0.13,1.07,0.13c0.52,0,0.94-0.11,1.26-0.33c0.32-0.22,0.48-0.54,0.48-0.95c0-0.23-0.05-0.43-0.14-0.59s-0.22-0.31-0.38-0.44
			c-0.16-0.13-0.35-0.25-0.56-0.35s-0.44-0.21-0.68-0.32c-0.27-0.13-0.53-0.26-0.79-0.4c-0.25-0.14-0.47-0.3-0.67-0.48
			s-0.35-0.38-0.46-0.61c-0.12-0.23-0.17-0.49-0.17-0.8c0-0.34,0.06-0.65,0.19-0.91c0.12-0.26,0.3-0.48,0.52-0.66
			c0.22-0.18,0.49-0.31,0.8-0.4s0.66-0.13,1.03-0.13c0.38,0,0.76,0.04,1.12,0.13c0.36,0.09,0.68,0.2,0.95,0.35l-0.2,0.88
			c-0.26-0.14-0.55-0.25-0.88-0.34s-0.66-0.13-1-0.13c-0.97,0-1.45,0.38-1.45,1.13c0,0.17,0.02,0.31,0.07,0.44
			c0.05,0.12,0.13,0.24,0.23,0.35c0.11,0.11,0.25,0.21,0.43,0.31c0.18,0.1,0.4,0.21,0.65,0.34c0.26,0.13,0.53,0.27,0.82,0.41
			c0.29,0.15,0.55,0.32,0.79,0.53c0.24,0.2,0.44,0.44,0.6,0.71C112.78,111.89,112.86,112.21,112.86,112.57z"/>
		<path class="st0" d="M123.4,108.99c0,0.38-0.08,0.73-0.25,1.04c-0.17,0.31-0.4,0.57-0.7,0.79s-0.65,0.38-1.06,0.5
			s-0.85,0.17-1.32,0.17h-0.55v3.16h-1.1v-7.99h1.93c0.43,0,0.83,0.05,1.21,0.14c0.37,0.1,0.7,0.24,0.97,0.44
			c0.28,0.2,0.49,0.44,0.65,0.73C123.32,108.26,123.4,108.6,123.4,108.99z M122.29,108.98c0-0.26-0.05-0.49-0.16-0.67
			s-0.25-0.33-0.43-0.44c-0.18-0.12-0.39-0.2-0.64-0.25c-0.24-0.05-0.5-0.08-0.77-0.08h-0.79v3.06h0.59c0.32,0,0.61-0.04,0.88-0.11
			c0.27-0.07,0.5-0.18,0.7-0.32c0.2-0.14,0.35-0.31,0.46-0.51C122.24,109.46,122.29,109.24,122.29,108.98z"/>
		<path class="st0" d="M129.8,114.64h-1.1v-7.99h1.1V114.64z"/>
		<path class="st0" d="M137.03,114.64h-1.1v-7.99H138c0.43,0,0.83,0.05,1.21,0.14c0.37,0.1,0.7,0.24,0.98,0.43
			c0.28,0.19,0.5,0.42,0.66,0.71s0.24,0.61,0.24,0.98c0,0.55-0.18,1.03-0.53,1.44c-0.36,0.41-0.85,0.7-1.49,0.89l2.82,3.41h-1.36
			l-2.6-3.22c-0.04,0-0.1,0-0.18,0.01c-0.08,0-0.16,0.01-0.25,0.01c-0.09,0-0.17,0-0.26,0s-0.15,0-0.2,0V114.64z M139.98,108.93
			c0-0.25-0.05-0.46-0.16-0.64c-0.11-0.18-0.25-0.32-0.44-0.43c-0.18-0.11-0.4-0.19-0.64-0.24c-0.24-0.05-0.49-0.08-0.76-0.08h-0.96
			v3.01h0.55c0.34,0,0.65-0.03,0.94-0.1c0.29-0.06,0.55-0.16,0.76-0.29c0.22-0.13,0.39-0.3,0.51-0.5S139.98,109.21,139.98,108.93z"
			/>
		<path class="st0" d="M147.07,106.65h4.45v0.9h-3.35v2.56h3.2v0.9h-3.2v2.74h3.38v0.9h-4.49V106.65z"/>
		<path class="st0" d="M164.23,117.64v-12h0.89v12H164.23z"/>
		<path class="st0" d="M179.24,114.64h-1.1v-7.99h1.1V114.64z"/>
		<path class="st0" d="M190.9,114.64l-4.48-6.28v6.28h-1.06v-7.99h1.06l4.48,6.28v-6.28h1.06v7.99H190.9z"/>
		<path class="st0" d="M203.54,114.64l-4.48-6.28v6.28h-1.06v-7.99h1.06l4.48,6.28v-6.28h1.06v7.99H203.54z"/>
		<path class="st0" d="M214.14,114.79c-0.62,0-1.18-0.11-1.67-0.34c-0.49-0.22-0.9-0.52-1.22-0.9s-0.58-0.82-0.75-1.32
			s-0.26-1.03-0.26-1.58s0.09-1.08,0.26-1.58s0.42-0.94,0.75-1.32c0.33-0.38,0.74-0.68,1.22-0.9c0.49-0.22,1.04-0.34,1.67-0.34
			s1.18,0.11,1.67,0.34c0.49,0.22,0.9,0.52,1.22,0.9c0.33,0.38,0.58,0.82,0.75,1.32s0.26,1.03,0.26,1.58s-0.09,1.08-0.26,1.58
			s-0.42,0.94-0.75,1.32s-0.74,0.68-1.22,0.9C215.32,114.68,214.76,114.79,214.14,114.79z M214.14,113.9c0.46,0,0.86-0.08,1.21-0.25
			c0.35-0.17,0.64-0.4,0.88-0.7c0.23-0.3,0.41-0.64,0.53-1.04c0.12-0.4,0.18-0.82,0.18-1.27s-0.06-0.87-0.18-1.27
			c-0.12-0.4-0.3-0.74-0.53-1.03c-0.23-0.29-0.52-0.52-0.88-0.7c-0.35-0.17-0.76-0.26-1.21-0.26s-0.86,0.09-1.21,0.26
			c-0.35,0.17-0.64,0.4-0.88,0.7c-0.23,0.29-0.41,0.64-0.53,1.03c-0.12,0.4-0.18,0.82-0.18,1.27s0.06,0.87,0.18,1.27
			c0.12,0.4,0.3,0.74,0.53,1.04c0.23,0.3,0.52,0.53,0.88,0.7C213.28,113.82,213.68,113.9,214.14,113.9z"/>
		<path class="st0" d="M228.5,106.65h1.1l-2.87,7.99h-1.15l-2.87-7.99h1.1l2.34,6.68L228.5,106.65z"/>
		<path class="st0" d="M240.83,114.64h-1.13l-0.73-1.93h-3.73l-0.72,1.93h-1.13l3.18-7.99h1.08L240.83,114.64z M235.57,111.82h3.07
			l-1.54-4.16L235.57,111.82z"/>
		<path class="st0" d="M250.6,106.65v0.9h-2.35v7.09h-1.1v-7.09h-2.35v-0.9H250.6z"/>
		<path class="st0" d="M255.96,106.65h4.45v0.9h-3.35v2.56h3.2v0.9h-3.2v2.74h3.38v0.9h-4.49V106.65z"/>
	</g>
</g>
</svg>
